<?xml version="1.0" standalone="no"?><!DOCTYPE svg PUBLIC "-//W3C//DTD SVG 1.1//EN" "http://www.w3.org/Graphics/SVG/1.1/DTD/svg11.dtd"><svg class="icon" width="40px" height="40.00px" viewBox="0 0 1024 1024" version="1.1" xmlns="http://www.w3.org/2000/svg"><path d="M0 32l0 35.52 0 711.104 0 35.648 36.608 0 424 0C504.256 918.016 609.28 992 731.52 992c161.216 0 292.48-127.744 292.48-284.48 0-104.832-59.008-196.096-146.24-245.504L877.76 67.52 877.76 32l-36.48 0L36.608 32 0 32zM73.152 103.104l731.456 0 0 329.984c-23.616-5.952-47.744-9.984-73.28-9.984L731.328 387.52 292.608 387.52l0 71.104 297.152 0c-33.472 18.112-61.888 42.304-85.76 71.104L292.608 529.728l0 71.168 168 0c-13.952 33.152-21.696 68.672-21.696 106.624 0 12.096 0.768 23.808 2.304 35.648l-368 0L73.152 103.104 73.152 103.104zM146.304 245.312l0 71.104 73.152 0L219.456 245.312 146.304 245.312zM292.608 245.312l0 71.104 438.912 0L731.52 245.312 292.608 245.312zM146.304 387.52l0 71.104 73.152 0L219.456 387.52 146.304 387.52zM731.52 494.272c121.536 0 219.392 95.04 219.392 213.248 0 118.272-97.728 213.376-219.392 213.376S512 825.728 512 707.52C512 589.312 609.856 494.272 731.52 494.272zM146.304 529.728l0 71.168 73.152 0L219.456 529.728 146.304 529.728zM694.848 565.312 694.848 672 585.152 672l0 71.104 109.76 0 0 106.624L768 849.728l0-106.624 109.76 0L877.76 672 768 672 768 565.312 694.848 565.312z" fill="#ffffff" /></svg>