<?xml version="1.0" standalone="no"?><!DOCTYPE svg PUBLIC "-//W3C//DTD SVG 1.1//EN" "http://www.w3.org/Graphics/SVG/1.1/DTD/svg11.dtd"><svg class="icon" width="200px" height="200.00px" viewBox="0 0 1024 1024" version="1.1" xmlns="http://www.w3.org/2000/svg"><path d="M739.7 644c53.3 38.5 107.9 72.8 163.4 102.9 23.4 12.7 28 44.4 9.2 63.2l-4.6 4.6c-145.7 145.7-382 145.7-527.8 0L209.3 644c-145.7-145.7-145.7-382 0-527.8l4.6-4.6c18.8-18.8 50.5-14.2 63.2 9.2C307.2 176.3 341.5 231 380 284.3c11.4 15.8 9.7 37.7-4.2 51.5L353 358.5c-69.2 69.2-69.2 181.5 0 250.7l61.7 61.7c69.2 69.2 181.5 69.2 250.7 0l22.8-22.8c13.9-13.8 35.7-15.5 51.5-4.1z"  /></svg>